# xmcd CD database file
#
# Track frame offsets:
#	150
#	26020
#	55440
#	69214
#	93650
#	130260
#	154856
#	178582
#	200767
#	235485
#
# Disc length: 3389 seconds
#
# Revision: 3
# Processed by: cddbd v1.5.1PL2 Copyright (c) Steve Scherf et al.
# Submitted via: CDex 1.51
#
DISCID=8e0d3b0a
DTITLE=Blindside Blues Band - To The Station
DYEAR=1996
DGENRE=Blues
TTITLE0=To The Station
TTITLE1=I'm Not Your Man
TTITLE2=Take His Keys
TTITLE3=Whirlwind
TTITLE4=Natural Thang
TTITLE5=Worn Out Shoe
TTITLE6=Fade Away
TTITLE7=Get Outta My Way
TTITLE8=Hurting Me
TTITLE9=All I Need
EXTD=1996 Shrapnel Records\n YEAR: 1996
EXTT0=
EXTT1=
EXTT2=
EXTT3=
EXTT4=
EXTT5=
EXTT6=
EXTT7=
EXTT8=
EXTT9=
PLAYORDER=
